<svg width="24" height="23" viewBox="0 0 24 23" fill="none" xmlns="http://www.w3.org/2000/svg">
<mask id="mask0_2203_2640" style="mask-type:alpha" maskUnits="userSpaceOnUse" x="0" y="0" width="14" height="14">
<rect width="9.8457" height="9.85196" transform="matrix(0.684892 0.728645 -0.734753 0.678334 7.23877 0)" fill="#D9D9D9"/>
</mask>
<g mask="url(#mask0_2203_2640)">
<mask id="path-2-inside-1_2203_2640" fill="white">
<path d="M4.57815 9.15619L4.74333 4.53721L9.40399 4.70091L9.38211 5.5167L6.11965 5.40211L9.54043 9.04143L8.9372 9.59834L5.51642 5.95902L5.40079 9.19231L4.57815 9.15619Z"/>
</mask>
<path d="M4.57815 9.15619L4.74333 4.53721L9.40399 4.70091L9.38211 5.5167L6.11965 5.40211L9.54043 9.04143L8.9372 9.59834L5.51642 5.95902L5.40079 9.19231L4.57815 9.15619Z" fill="black"/>
<path d="M4.57815 9.15619L1.56667 9.04852L1.46081 12.0087L4.44669 12.1398L4.57815 9.15619ZM4.74333 4.53721L4.84814 1.55252L1.8385 1.44681L1.73184 4.42954L4.74333 4.53721ZM9.40399 4.70091L12.4163 4.78217L12.4957 1.82113L9.50881 1.71622L9.40399 4.70091ZM9.38211 5.5167L9.2773 8.50139L12.3137 8.60804L12.3944 5.59796L9.38211 5.5167ZM6.11965 5.40211L6.22446 2.41743L-1.04281 2.16218L3.91539 7.43712L6.11965 5.40211ZM9.54043 9.04143L11.5951 11.2274L13.7994 9.19237L11.7447 7.00643L9.54043 9.04143ZM8.9372 9.59834L6.73294 11.6333L8.78762 13.8193L10.9919 11.7843L8.9372 9.59834ZM5.51642 5.95902L7.72068 3.92402L2.76248 -1.35092L2.50493 5.85135L5.51642 5.95902ZM5.40079 9.19231L5.26933 12.1759L8.30467 12.3092L8.41228 9.29999L5.40079 9.19231ZM7.58964 9.26386L7.75482 4.64489L1.73184 4.42954L1.56667 9.04852L7.58964 9.26386ZM4.63851 7.5219L9.29918 7.6856L9.50881 1.71622L4.84814 1.55252L4.63851 7.5219ZM6.39168 4.61965L6.3698 5.43545L12.3944 5.59796L12.4163 4.78217L6.39168 4.61965ZM9.48693 2.53202L6.22446 2.41743L6.01483 8.3868L9.2773 8.50139L9.48693 2.53202ZM3.91539 7.43712L7.33617 11.0764L11.7447 7.00643L8.32391 3.36711L3.91539 7.43712ZM7.48576 6.8555L6.88253 7.41241L10.9919 11.7843L11.5951 11.2274L7.48576 6.8555ZM11.1415 7.56334L7.72068 3.92402L3.31216 7.99403L6.73294 11.6333L11.1415 7.56334ZM2.50493 5.85135L2.38931 9.08464L8.41228 9.29999L8.52791 6.0667L2.50493 5.85135ZM5.53226 6.20868L4.70962 6.17256L4.44669 12.1398L5.26933 12.1759L5.53226 6.20868Z" fill="black" mask="url(#path-2-inside-1_2203_2640)"/>
</g>
<mask id="mask1_2203_2640" style="mask-type:alpha" maskUnits="userSpaceOnUse" x="0" y="9" width="15" height="14">
<rect width="9.84242" height="9.85523" transform="matrix(0.657277 -0.753649 0.759462 0.650552 0.26001 16.5889)" fill="#D9D9D9"/>
</mask>
<g mask="url(#mask1_2203_2640)">
<path d="M9.73187 18.2225L5.08058 18.558L4.74209 13.9483L5.56281 13.8819L5.79975 17.1087L9.08152 13.3457L9.70524 13.88L6.42347 17.6429L9.67938 17.4081L9.73187 18.2225Z" fill="black"/>
</g>
<mask id="mask2_2203_2640" style="mask-type:alpha" maskUnits="userSpaceOnUse" x="9" y="9" width="15" height="14">
<rect width="9.84351" height="9.85415" transform="matrix(-0.666553 -0.745457 0.751372 -0.659878 15.801 22.9971)" fill="#D9D9D9"/>
</mask>
<g mask="url(#mask2_2203_2640)">
<mask id="path-7-inside-2_2203_2640" fill="white">
<path d="M18.6904 13.9094L18.4095 18.5229L13.7543 18.2445L13.7967 17.4295L17.0553 17.6244L13.7268 13.9019L14.3438 13.36L17.6723 17.0825L17.8689 13.8531L18.6904 13.9094Z"/>
</mask>
<path d="M18.6904 13.9094L18.4095 18.5229L13.7543 18.2445L13.7967 17.4295L17.0553 17.6244L13.7268 13.9019L14.3438 13.36L17.6723 17.0825L17.8689 13.8531L18.6904 13.9094Z" fill="black"/>
<path d="M18.6904 13.9094L28.7163 14.5199L29.3168 4.65994L19.3735 3.97758L18.6904 13.9094ZM18.4095 18.5229L17.8151 28.4605L27.8309 29.0596L28.4354 19.1334L18.4095 18.5229ZM13.7543 18.2445L3.72344 17.7219L3.21101 27.5869L13.16 28.182L13.7543 18.2445ZM13.7967 17.4295L14.391 7.49191L4.28624 6.88746L3.76578 16.9069L13.7967 17.4295ZM17.0553 17.6244L16.4609 27.5619L40.6487 29.0088L24.569 11.0256L17.0553 17.6244ZM13.7268 13.9019L7.06126 6.44734L-0.452462 13.0461L6.21307 20.5007L13.7268 13.9019ZM14.3438 13.36L21.8575 6.76125L15.192 -0.69332L7.67827 5.90546L14.3438 13.36ZM17.6723 17.0825L10.1585 23.6813L26.2383 41.6645L27.6982 17.693L17.6723 17.0825ZM17.8689 13.8531L18.552 3.92121L8.45291 3.22816L7.84302 13.2426L17.8689 13.8531ZM8.6645 13.2989L8.38353 17.9124L28.4354 19.1334L28.7163 14.5199L8.6645 13.2989ZM19.0038 8.58537L14.3487 8.30691L13.16 28.182L17.8151 28.4605L19.0038 8.58537ZM23.7852 18.767L23.8276 17.952L3.76578 16.9069L3.72344 17.7219L23.7852 18.767ZM13.2023 27.367L16.4609 27.5619L17.6496 7.68683L14.391 7.49191L13.2023 27.367ZM24.569 11.0256L21.2405 7.30313L6.21307 20.5007L9.54153 24.2232L24.569 11.0256ZM20.3923 21.3565L21.0093 20.8146L7.67827 5.90546L7.06126 6.44734L20.3923 21.3565ZM6.83008 19.9588L10.1585 23.6813L25.186 10.4837L21.8575 6.76125L6.83008 19.9588ZM27.6982 17.693L27.8949 14.4636L7.84302 13.2426L7.64634 16.472L27.6982 17.693ZM17.1859 23.7849L18.0074 23.8413L19.3735 3.97758L18.552 3.92121L17.1859 23.7849Z" fill="black" mask="url(#path-7-inside-2_2203_2640)"/>
</g>
<mask id="mask3_2203_2640" style="mask-type:alpha" maskUnits="userSpaceOnUse" x="9" y="0" width="15" height="15">
<rect width="9.84591" height="9.85175" transform="matrix(-0.686643 0.726995 -0.733121 -0.680098 23.2227 6.94434)" fill="#D9D9D9"/>
</mask>
<g mask="url(#mask3_2203_2640)">
<path d="M13.8235 4.93972L18.4846 4.78712L18.6385 9.40648L17.8158 9.44064L17.708 6.20709L14.2784 9.83825L13.6766 9.2799L17.1062 5.64875L13.8434 5.75556L13.8235 4.93972Z" fill="black"/>
</g>
</svg>
